<?xml version="1.0" encoding="UTF-8"?>
<svg id="_Слой_2" data-name="Слой 2" xmlns="http://www.w3.org/2000/svg" viewBox="0 0 300 139.34">
  <defs>
    <style>
      .cls-1 {
        fill: #fff9fa;
      }

      .cls-2 {
        fill: #76dfcb;
      }
    </style>
  </defs>
  <g id="_Слой_2-2" data-name="Слой 2">
    <g>
      <path class="cls-1" d="m22.53,35.5v9.94h-8.17V14.22h16.91c6.44,0,11.19,4.13,11.19,10.62s-4.76,10.66-11.19,10.66h-8.74Zm0-13.69v6.1h8.74c1.83,0,3.03-1.1,3.03-3.07s-1.2-3.03-3.03-3.03h-8.74Z"/>
      <path class="cls-1" d="m45.4,29.64c0-9.99,7.3-16.33,17.24-16.33s17.25,6.34,17.25,16.33h-8.31c0-5.48-3.55-8.74-8.94-8.74s-8.93,3.27-8.93,8.74,3.55,8.79,8.93,8.79,8.94-3.27,8.94-8.79h8.31c0,9.99-7.35,16.38-17.25,16.38s-17.24-6.39-17.24-16.38Z"/>
      <path class="cls-1" d="m117.84,33.14v2.02c-1.83,6.05-8.41,10.86-16.81,10.86-9.94,0-17.24-6.39-17.24-16.38s7.3-16.33,17.24-16.33c7.97,0,14.65,4.04,16.81,10.86v2.02h-8.45c-1.2-3.36-4.23-5.28-8.36-5.28-5.38,0-8.93,3.27-8.93,8.74s3.55,8.79,8.93,8.79c4.13,0,7.21-1.92,8.41-5.28h8.41Z"/>
      <path class="cls-1" d="m156.36,33.14v2.02c-1.83,6.05-8.41,10.86-16.81,10.86-9.94,0-17.24-6.39-17.24-16.38s7.3-16.33,17.24-16.33c7.97,0,14.65,4.04,16.81,10.86v2.02h-8.45c-1.2-3.36-4.23-5.28-8.36-5.28-5.38,0-8.93,3.27-8.93,8.74s3.55,8.79,8.93,8.79c4.13,0,7.21-1.92,8.41-5.28h8.41Z"/>
      <path class="cls-1" d="m170.08,45.44h-9.7V14.22h8.17v21.09h.34l12.59-21.09h9.7v31.22h-8.17v-21.09h-.38l-12.54,21.09Z"/>
      <path class="cls-1" d="m226.15,45.44h-8.17v-9.94h-6.24l-6.58,9.94h-8.74v-1.78l6.72-9.46c-4.18-1.39-6.92-4.85-6.92-9.66,0-6.29,4.76-10.33,11.19-10.33h18.73v31.22Zm-18.49-23.63c-1.83,0-3.03,1.1-3.03,3.07s1.2,3.03,3.03,3.03h10.33v-6.1h-10.33Z"/>
      <path class="cls-1" d="m14.36,54.24h26.18v7.11h-18.01v3.51h8.74c6.44,0,11.19,3.99,11.19,10.28s-4.76,10.33-11.19,10.33H14.36v-31.22Zm8.17,18.21v5.43h8.74c1.83,0,3.03-.91,3.03-2.74s-1.2-2.69-3.03-2.69h-8.74Z"/>
      <path class="cls-1" d="m48.04,54.24h25.7v7.11h-17.53v4.32h16.67v7.11h-16.67v5.57h17.63v7.11h-25.8v-31.22Z"/>
      <path class="cls-1" d="m92.62,73.12v-7.01h3.75c2.45-.1,4.13-1.2,4.13-2.79,0-1.49-1.97-2.59-5.72-2.59-3.36,0-6.48,2.16-7.16,5.43h-8.26v-2.07c2.02-7.06,8.17-10.86,15.28-10.86,8.5,0,14.46,4.52,14.46,9.42,0,2.64-1.59,4.9-3.99,6.49v.38c2.83,1.63,4.71,4.08,4.71,7.16,0,5.28-6.48,9.37-14.31,9.37-7.35,0-14.03-3.55-16.14-10.9v-2.07h8.26c.96,3.46,4.23,5.38,8.02,5.38s5.57-1.1,5.57-2.83c0-1.54-2.31-2.5-4.61-2.5h-3.99Z"/>
      <path class="cls-1" d="m47.17,113.2v2.02c-1.83,6.05-8.41,10.86-16.81,10.86-9.94,0-17.24-6.39-17.24-16.38s7.3-16.33,17.24-16.33c7.97,0,14.65,4.04,16.81,10.86v2.02h-8.45c-1.2-3.36-4.23-5.28-8.36-5.28-5.38,0-8.93,3.27-8.93,8.74s3.55,8.79,8.93,8.79c4.13,0,7.21-1.92,8.41-5.28h8.41Z"/>
      <path class="cls-1" d="m60.38,117.91h12.11v-23.63h8.17v23.63h5.28c-.67,7.13-1.33,14.27-2,21.4h-8.01c.49-4.6.97-9.21,1.46-13.81h-25.17v-31.22h8.17v23.63Z"/>
      <path class="cls-1" d="m90.02,94.27h25.7v7.11h-17.53v4.32h16.67v7.11h-16.67v5.57h17.63v7.11h-25.8v-31.22Z"/>
      <path class="cls-1" d="m145.21,113.25h-13.55v12.25h-8.17v-31.22h8.17v11.38h13.55v-11.38h8.17v31.22h-8.17v-12.25Z"/>
      <path class="cls-1" d="m170.47,94.27h9.7l12.78,29.45v1.78h-8.45l-2.07-5.09h-14.22l-2.07,5.09h-8.21v-1.78l12.54-29.45Zm.62,19.02h8.45l-3.89-9.61h-.72l-3.84,9.61Z"/>
      <path class="cls-1" d="m206.35,115.55v9.94h-8.17v-31.22h16.91c6.44,0,11.19,4.13,11.19,10.62s-4.76,10.66-11.19,10.66h-8.74Zm0-13.69v6.1h8.74c1.83,0,3.03-1.1,3.03-3.07s-1.2-3.03-3.03-3.03h-8.74Z"/>
      <path class="cls-1" d="m242.17,125.49h-9.7c.08-40.31.16-80.63.23-120.94h8.01c-.02,36.94-.05,73.87-.07,110.81h.34l12.59-21.09h9.7v31.22h-8.17v-21.09h-.38l-12.54,21.09Z"/>
      <path class="cls-1" d="m300,125.49h-8.17v-9.94h-6.24l-6.58,9.94h-8.74v-1.78l6.72-9.46c-4.18-1.39-6.92-4.85-6.92-9.66,0-6.29,4.76-10.33,11.19-10.33h18.73v31.22Zm-18.49-23.63c-1.83,0-3.03,1.1-3.03,3.07s1.2,3.03,3.03,3.03h10.33v-6.1h-10.33Z"/>
      <rect class="cls-1" x="116.35" y="-116.35" width="8.01" height="240.71" transform="translate(124.36 -116.35) rotate(90)"/>
      <rect class="cls-1" y="2.55" width="8.01" height="136.79"/>
      <rect class="cls-1" x="38.57" y="95.28" width="8.01" height="80.05" transform="translate(177.88 92.73) rotate(90)"/>
      <rect class="cls-2" x="115.41" y="53.25" width="110.74" height="32.02"/>
    </g>
  </g>
</svg>